<svg xmlns="http://www.w3.org/2000/svg" xmlns:xlink="http://www.w3.org/1999/xlink" width="500" zoomAndPan="magnify" viewBox="0 0 375 374.999991" height="500" preserveAspectRatio="xMidYMid meet" version="1.0"><defs><g/><clipPath id="bc9edfe551"><path d="M 177 139 L 201 139 L 201 224.582031 L 177 224.582031 Z M 177 139 " clip-rule="nonzero"/></clipPath><clipPath id="3309b2eafa"><path d="M 112.488281 91.042969 L 262.820312 91.042969 L 262.820312 128 L 112.488281 128 Z M 112.488281 91.042969 " clip-rule="nonzero"/></clipPath></defs><rect x="-37.5" width="450" fill="#ffffff" y="-37.499999" height="449.999989" fill-opacity="1"/><rect x="-37.5" width="450" fill="#ffffff" y="-37.499999" height="449.999989" fill-opacity="1"/><g fill="#000000" fill-opacity="1"><g transform="translate(45.610528, 255.646413)"><g><path d="M 16.46875 0 L 2.359375 0 L 2.359375 -21.109375 L 16.46875 -21.109375 C 22.25 -21.109375 26.40625 -20.300781 28.9375 -18.6875 C 30.976562 -17.375 32.140625 -15.597656 32.421875 -13.359375 C 32.546875 -12.390625 32.609375 -11.453125 32.609375 -10.546875 C 32.609375 -9.648438 32.546875 -8.710938 32.421875 -7.734375 C 32.304688 -6.765625 31.984375 -5.820312 31.453125 -4.90625 C 30.921875 -3.988281 30.078125 -3.160156 28.921875 -2.421875 C 27.773438 -1.691406 26.195312 -1.101562 24.1875 -0.65625 C 22.1875 -0.21875 19.613281 0 16.46875 0 Z M 15.640625 -5.21875 C 20.140625 -5.21875 22.679688 -6.359375 23.265625 -8.640625 C 23.421875 -9.273438 23.5 -9.910156 23.5 -10.546875 C 23.5 -11.191406 23.414062 -11.832031 23.25 -12.46875 C 23.09375 -13.101562 22.753906 -13.675781 22.234375 -14.1875 C 21.710938 -14.695312 20.925781 -15.109375 19.875 -15.421875 C 18.820312 -15.734375 17.410156 -15.890625 15.640625 -15.890625 L 11.203125 -15.890625 L 11.203125 -5.21875 Z M 15.640625 -5.21875 "/></g></g></g><g fill="#000000" fill-opacity="1"><g transform="translate(84.064303, 255.646413)"><g><path d="M 27.765625 0 L 2.359375 0 L 2.359375 -21.109375 L 26.609375 -21.109375 L 26.609375 -15.890625 L 11.203125 -15.890625 L 11.203125 -12.578125 L 24.21875 -12.578125 L 24.21875 -8.515625 L 11.203125 -8.515625 L 11.203125 -5.21875 L 27.765625 -5.21875 Z M 27.765625 0 "/></g></g></g><g fill="#000000" fill-opacity="1"><g transform="translate(117.679525, 255.646413)"><g><path d="M 20.265625 0 L 12.046875 0 L 0.21875 -21.09375 L 9.1875 -21.09375 L 16.171875 -6.015625 L 23.125 -21.09375 L 32.09375 -21.09375 Z M 20.265625 0 "/></g></g></g><g fill="#000000" fill-opacity="1"><g transform="translate(154.662618, 255.646413)"><g><path d="M 18 0 L 9.15625 0 L 9.15625 -15.890625 L 0.875 -15.890625 L 0.875 -21.109375 L 26.265625 -21.109375 L 26.265625 -15.890625 L 18 -15.890625 Z M 18 0 "/></g></g></g><g fill="#000000" fill-opacity="1"><g transform="translate(186.483608, 255.646413)"><g><path d="M 35.453125 0 L 26.484375 0 L 24.484375 -3.453125 L 11.171875 -3.453125 L 9.1875 0 L 0.21875 0 L 13.71875 -21.09375 L 21.953125 -21.09375 Z M 21.5 -8.671875 L 17.84375 -15.078125 L 14.171875 -8.671875 Z M 21.5 -8.671875 "/></g></g></g><g fill="#000000" fill-opacity="1"><g transform="translate(226.819847, 255.646413)"><g><path d="M 31.171875 0 L 22.796875 0 C 22.410156 -0.53125 22.140625 -1.207031 21.984375 -2.03125 C 21.847656 -2.664062 21.644531 -3.289062 21.375 -3.90625 C 21.101562 -4.519531 20.628906 -5.03125 19.953125 -5.4375 C 19.285156 -5.84375 18.285156 -6.0625 16.953125 -6.09375 L 11.203125 -6.09375 L 11.203125 0 L 2.359375 0 L 2.359375 -21.109375 L 16.75 -21.109375 C 20.195312 -21.109375 22.972656 -20.847656 25.078125 -20.328125 C 27.191406 -19.816406 28.734375 -19.007812 29.703125 -17.90625 C 30.679688 -16.800781 31.171875 -15.363281 31.171875 -13.59375 C 31.171875 -12.113281 30.832031 -10.867188 30.15625 -9.859375 C 29.488281 -8.847656 28.429688 -8.046875 26.984375 -7.453125 C 28.378906 -6.878906 29.285156 -6.1875 29.703125 -5.375 C 30.117188 -4.5625 30.378906 -3.671875 30.484375 -2.703125 C 30.578125 -1.835938 30.804688 -0.9375 31.171875 0 Z M 11.203125 -11.296875 L 16.265625 -11.3125 C 17.679688 -11.3125 18.796875 -11.375 19.609375 -11.5 C 20.421875 -11.625 21.019531 -11.796875 21.40625 -12.015625 C 21.789062 -12.242188 22.035156 -12.492188 22.140625 -12.765625 C 22.253906 -13.035156 22.3125 -13.3125 22.3125 -13.59375 C 22.3125 -13.875 22.253906 -14.148438 22.140625 -14.421875 C 22.035156 -14.703125 21.789062 -14.953125 21.40625 -15.171875 C 21.019531 -15.390625 20.421875 -15.5625 19.609375 -15.6875 C 18.796875 -15.820312 17.679688 -15.890625 16.265625 -15.890625 L 11.203125 -15.890625 Z M 11.203125 -11.296875 "/></g></g></g><g fill="#000000" fill-opacity="1"><g transform="translate(263.832345, 255.646413)"><g><path d="M 27.765625 0 L 2.359375 0 L 2.359375 -21.109375 L 26.609375 -21.109375 L 26.609375 -15.890625 L 11.203125 -15.890625 L 11.203125 -12.578125 L 24.21875 -12.578125 L 24.21875 -8.515625 L 11.203125 -8.515625 L 11.203125 -5.21875 L 27.765625 -5.21875 Z M 27.765625 0 "/></g></g></g><g fill="#000000" fill-opacity="1"><g transform="translate(297.447557, 255.646413)"><g><path d="M 23.203125 1.515625 C 22.367188 1.296875 21.609375 0.800781 20.921875 0.03125 C 19.460938 0.289062 17.804688 0.421875 15.953125 0.421875 C 10.742188 0.421875 6.90625 -0.648438 4.4375 -2.796875 C 2.257812 -4.703125 1.171875 -7.296875 1.171875 -10.578125 C 1.171875 -13.847656 2.257812 -16.4375 4.4375 -18.34375 C 6.90625 -20.488281 10.742188 -21.5625 15.953125 -21.5625 C 21.171875 -21.5625 25.015625 -20.488281 27.484375 -18.34375 C 29.660156 -16.4375 30.75 -13.847656 30.75 -10.578125 C 30.75 -6.742188 29.269531 -3.863281 26.3125 -1.9375 C 27.0625 -1.394531 27.769531 -1.023438 28.4375 -0.828125 Z M 15.953125 -5.234375 C 16.390625 -5.234375 16.796875 -5.257812 17.171875 -5.3125 C 16.597656 -6.09375 15.992188 -6.703125 15.359375 -7.140625 L 17.921875 -8.609375 C 18.710938 -8.328125 19.59375 -7.769531 20.5625 -6.9375 C 21.4375 -7.9375 21.875 -9.148438 21.875 -10.578125 C 21.875 -11.921875 21.472656 -13.082031 20.671875 -14.0625 C 19.671875 -15.289062 18.097656 -15.90625 15.953125 -15.90625 C 13.816406 -15.90625 12.242188 -15.289062 11.234375 -14.0625 C 10.429688 -13.082031 10.03125 -11.921875 10.03125 -10.578125 C 10.03125 -9.222656 10.429688 -8.054688 11.234375 -7.078125 C 12.242188 -5.847656 13.816406 -5.234375 15.953125 -5.234375 Z M 15.953125 -5.234375 "/></g></g></g><g clip-path="url(#bc9edfe551)"><path fill="#000000" d="M 177.703125 139.796875 L 200.523438 139.796875 L 200.523438 206.320312 L 189.128906 224.515625 L 177.703125 206.320312 Z M 177.703125 139.796875 " fill-opacity="1" fill-rule="nonzero"/></g><g clip-path="url(#3309b2eafa)"><path fill="#000000" d="M 112.488281 92.722656 L 187.175781 107.984375 L 262.820312 91.109375 L 253.351562 111.875 L 187.65625 127.46875 L 121.300781 110.917969 Z M 112.488281 92.722656 " fill-opacity="1" fill-rule="nonzero"/></g></svg>